<svg width="80" height="80" viewBox="0 0 80 80" fill="none" xmlns="http://www.w3.org/2000/svg">
<path d="M0 12C0 5.37258 5.37258 0 12 0H68C74.6274 0 80 5.37258 80 12V68C80 74.6274 74.6274 80 68 80H12C5.37258 80 0 74.6274 0 68V12Z" fill="#333333"/>
<path d="M35.3058 64.7932C35.7075 65.0037 36.1157 65.0591 36.5306 64.9594C36.9566 64.8569 37.3138 64.6647 37.6022 64.3829C38.1617 64.6663 38.7849 64.9049 39.4718 65.099C40.815 65.4785 42.15 65.4659 43.4766 65.0613C44.8032 64.6568 45.9801 63.9393 47.0073 62.9089C47.9773 61.9273 48.8197 60.823 49.5343 59.5961C50.269 58.3749 50.8176 57.1227 51.1801 55.8396C51.7011 53.9951 52.0117 52.0911 52.1118 50.1277C52.2175 48.1442 52.1262 46.3216 51.838 44.6598C51.5816 43.1153 51.0262 40.1765 50.172 35.8436L49.9758 34.814C49.6649 33.2324 49.5283 31.5702 49.5661 29.8273C49.6095 28.0644 49.8549 26.391 50.3024 24.8071C50.5176 24.0453 50.8588 23.2974 51.3259 22.5634C51.8044 21.7893 52.4121 21.1708 53.149 20.7079C53.906 20.2506 54.6567 20.0838 55.4011 20.2075C55.8693 20.7728 56.6146 21.1998 57.637 21.4887L59.0634 20.4628C58.964 19.742 58.6229 19.0719 58.0401 18.4526C57.4573 17.8334 56.7951 17.419 56.0533 17.2094C54.5697 16.7903 53.1707 16.9146 51.8563 17.5825C50.5532 18.2102 49.4642 19.1148 48.5891 20.2965C47.7198 21.458 47.0755 22.7806 46.6564 24.2642C46.1353 26.1087 45.898 28.0983 45.9444 30.233C45.972 31.8211 46.0996 33.3618 46.3273 34.8549C46.5606 36.328 46.8994 38.1556 47.3437 40.3377L47.7316 42.2983C48.1471 44.429 48.3609 46.546 48.3729 48.6493C48.3848 50.7526 48.1444 52.6764 47.6517 54.4206C47.4421 55.1624 47.0983 55.9962 46.6203 56.9219C46.1624 57.8534 45.6113 58.7693 44.9673 59.6698C44.2805 60.6448 43.51 61.3797 42.6559 61.8744C41.8217 62.3748 41.0237 62.5174 40.2619 62.3022C39.9411 62.2116 39.4652 61.9039 38.834 61.3793C38.4161 61.0545 38.0336 60.8056 37.6868 60.6325L37.3545 59.6269L36.8858 58.2256L34.771 49.9795C33.7585 46.3174 33.0378 43.5944 32.6088 41.8106L32.3694 40.815C32.2979 40.7005 32.2289 40.3222 32.1622 39.68L32.0472 38.6544C31.4685 36.2484 31.1233 32.6233 31.0114 27.7791C30.8996 22.935 30.5593 19.3306 29.9906 16.9661C29.8909 16.5512 29.2809 16.4785 28.1609 16.7479C27.5801 16.8876 27.1921 17.4636 26.9967 18.476C26.8229 19.3955 26.7804 20.6783 26.8691 22.3245C27.0445 24.6959 27.4218 27.6332 28.001 31.1362C28.1774 32.2347 28.2832 33.1308 28.3184 33.8245L27.0377 31.2362L25.1961 27.1372C25.0233 26.7838 24.4743 25.6871 23.5491 23.8471C22.6239 22.0071 21.7826 20.6077 21.0254 19.6488C20.3811 18.7945 19.8308 18.4222 19.3745 18.5319C19.0011 18.6217 18.6734 18.8102 18.3915 19.0975C18.1095 19.3847 18.0034 19.6735 18.0732 19.9639C18.4424 21.4988 19.1046 23.2485 20.0597 25.2129C21.0049 27.1359 22.0239 28.9094 23.1167 30.5336C24.2709 32.2308 25.3205 34.0408 26.2657 35.9638C27.2109 37.8867 27.8731 39.6364 28.2522 41.2128C28.5615 42.4988 29.2029 44.2534 30.1765 46.4768C31.1185 48.7515 31.7342 50.4904 32.0236 51.6935C32.3428 53.021 32.7645 55.0479 33.2886 57.7743L34.6158 63.8401C34.7155 64.2549 34.9455 64.5726 35.3058 64.7932Z" fill="#F9F9F9"/>
</svg>
